# xmcd
#
# Track frame offsets: 
#        150
#        20860
#        36189
#        51365
#        70624
#        84517
#        102339
#        121424
#        134618
#        155054
#        167908
#        182944
#        203299
#        227317
#
# Disc length: 3361 seconds
#
# Revision: 0
# Processed by: cddbd v1.5.1PL0 Copyright (c) Steve Scherf et al.
# Submitted via: ExactAudioCopy v0.95a5
#
DISCID=be0d1f0e
DTITLE=The Texas Trailhands - Lone Star Swing
DYEAR=2001
DGENRE=Western
TTITLE0=Lone Star Swing
TTITLE1=Don't Fence Me In
TTITLE2=Roly Poly
TTITLE3=Saguaro
TTITLE4=Last Roundup Waltz
TTITLE5=Little Star Of Heaven
TTITLE6=Along The Navajo Trail
TTITLE7=Panhandle Rag
TTITLE8=Ain't Misbehavin'
TTITLE9=Cielito Lindo
TTITLE10=Sunset Serenade
TTITLE11=Cow Cow Boogie
TTITLE12=A Maiden's Prayer
TTITLE13=The Singin' Cowboy Rumba
EXTD=
EXTT0=
EXTT1=
EXTT2=
EXTT3=
EXTT4=
EXTT5=
EXTT6=
EXTT7=
EXTT8=
EXTT9=
EXTT10=
EXTT11=
EXTT12=
EXTT13=
PLAYORDER=
